<svg aria-hidden="true" style="position: absolute; width: 0; height: 0; overflow: hidden;" version="1.1" xmlns="http://www.w3.org/2000/svg" xmlns:xlink="http://www.w3.org/1999/xlink">
<defs>

<symbol id="icon-burger-menu" viewBox="0 0 32 32">
<path stroke-width="1.2" stroke-miterlimit="4" stroke-linecap="round" stroke-linejoin="round" d="M31.2 9.6h-22.8M31.2 16h-30.4M31.2 22.4h-15.2"></path>
</symbol>

<symbol id="icon-burger-menu-close" viewBox="0 0 32 32">
<path d="M8.533 24.41l-0.944-0.944 7.467-7.467-7.467-7.467 0.944-0.944 7.467 7.467 7.467-7.467 0.944 0.944-7.467 7.467 7.467 7.467-0.944 0.944-7.467-7.467-7.467 7.467z"></path>
</symbol>

<symbol id="icon-iconoir" viewBox="0 0 32 32">
<path stroke-width="2" stroke-miterlimit="4" stroke-linecap="round" stroke-linejoin="round" d="M4 17.333c4.8-10.667 19.2-10.667 24 0"></path>
<path stroke-width="2" stroke-miterlimit="4" stroke-linecap="round" stroke-linejoin="round" d="M16 22.667c-0.525 0-1.045-0.103-1.531-0.305s-0.926-0.496-1.298-0.867c-0.371-0.371-0.666-0.812-0.867-1.298s-0.304-1.005-0.304-1.531 0.103-1.045 0.304-1.531c0.201-0.485 0.496-0.926 0.867-1.298s0.812-0.666 1.298-0.867c0.485-0.201 1.005-0.305 1.531-0.305 1.061 0 2.078 0.421 2.828 1.172s1.172 1.768 1.172 2.828c0 1.061-0.421 2.078-1.172 2.828s-1.768 1.172-2.828 1.172z"></path>
</symbol>

<symbol id="icon-iconoir-close" viewBox="0 0 32 32">
<path stroke-width="2" stroke-miterlimit="4" stroke-linecap="round" stroke-linejoin="round" d="M4 17.333c4.8-10.667 19.2-10.667 24 0"></path>
</symbol>

<symbol id="icon-arrow-outlined" viewBox="0 0 16 32">
<path d="M12.756 8.767l-1.415-1.413-7.705 7.703c-0.124 0.123-0.223 0.27-0.29 0.432s-0.102 0.335-0.102 0.51c0 0.175 0.035 0.348 0.102 0.51s0.166 0.308 0.29 0.432l7.705 7.707 1.413-1.413-7.232-7.233 7.233-7.233z"></path>
</symbol>

<symbol id="icon-solar-info" viewBox="0 0 32 32">
<path stroke-width="1.3333" stroke-miterlimit="4" stroke-linecap="butt" stroke-linejoin="miter" d="M16 29.333c-7.364 0-13.333-5.97-13.333-13.333s5.97-13.333 13.333-13.333c7.364 0 13.333 5.97 13.333 13.333s-5.97 13.333-13.333 13.333z"></path>
<path stroke-width="1.3333" stroke-miterlimit="4" stroke-linecap="round" stroke-linejoin="miter" d="M16 22.667v-8"></path>
<path d="M16.066 10c0.552 0 1 0.448 1 1s-0.448 1-1 1c-0.552 0-1-0.448-1-1s0.448-1 1-1z"></path>
</symbol>

<symbol id="icon-upload" viewBox="0 0 30 32">
<path stroke-width="1.5238" stroke-miterlimit="4" stroke-linecap="round" stroke-linejoin="round" d="M5.079 15.999v3.23c0 4.121 0 6.182 1.125 7.577 0.227 0.282 0.484 0.538 0.766 0.766 1.398 1.125 3.457 1.125 7.577 1.125 0.895 0 1.344 0 1.754-0.145 0.085-0.030 0.168-0.065 0.25-0.104 0.394-0.188 0.71-0.504 1.344-1.138l6.014-6.014c0.735-0.734 1.101-1.101 1.295-1.568 0.193-0.467 0.193-0.985 0.193-2.024v-4.245c0-4.789 0-7.183-1.488-8.67s-3.882-1.488-8.67-1.488M16.508 28.062v-0.635c0-3.591 0-5.388 1.116-6.503 1.115-1.116 2.912-1.116 6.503-1.116h0.635"></path>
<path stroke-width="1.5238" stroke-miterlimit="4" stroke-linecap="round" stroke-linejoin="round" d="M12.698 7.11c-0.749-0.771-2.743-3.81-3.81-3.81s-3.060 3.039-3.81 3.81M8.889 4.57v8.889"></path>
</symbol>

<symbol id="icon-delete" viewBox="0 0 32 32">
<path d="M9.6 27.52c-0.704 0-1.306-0.25-1.807-0.751s-0.752-1.104-0.753-1.809v-16.64h-1.28v-2.56h6.4v-1.28h7.68v1.28h6.4v2.56h-1.28v16.64c0 0.704-0.25 1.307-0.751 1.809s-1.104 0.752-1.809 0.751h-12.8zM22.4 8.32h-12.8v16.64h12.8v-16.64zM12.16 22.4h2.56v-11.52h-2.56v11.52zM17.28 22.4h2.56v-11.52h-2.56v11.52z"></path>
</symbol>

<symbol id="icon-material-close-rounded" viewBox="0 0 32 32">
<path d="M16 17.867l-6.533 6.533c-0.244 0.245-0.556 0.367-0.933 0.367s-0.689-0.122-0.933-0.367c-0.244-0.244-0.367-0.555-0.367-0.933s0.122-0.689 0.367-0.933l6.533-6.533-6.533-6.533c-0.244-0.244-0.367-0.556-0.367-0.933s0.122-0.689 0.367-0.933c0.244-0.244 0.556-0.367 0.933-0.367s0.689 0.122 0.933 0.367l6.533 6.533 6.533-6.533c0.245-0.244 0.556-0.367 0.933-0.367s0.689 0.122 0.933 0.367c0.245 0.244 0.367 0.556 0.367 0.933s-0.122 0.689-0.367 0.933l-6.533 6.533 6.533 6.533c0.245 0.245 0.367 0.556 0.367 0.933s-0.122 0.689-0.367 0.933c-0.244 0.245-0.555 0.367-0.933 0.367s-0.689-0.122-0.933-0.367l-6.533-6.533z"></path>
</symbol>

<symbol id="icon-two-circle" viewBox="0 0 50 32">
<path stroke-width="0.9505" stroke-miterlimit="4" stroke-linecap="round" stroke-linejoin="round" d="M21.941 30.343c1.884-0.78 3.595-1.924 5.037-3.365s2.585-3.153 3.365-5.037c0.78-1.884 1.182-3.902 1.182-5.941s-0.401-4.057-1.182-5.941c-0.78-1.883-1.924-3.595-3.365-5.037s-3.153-2.585-5.037-3.365c-1.884-0.78-3.902-1.182-5.941-1.182-4.117 0-8.066 1.636-10.978 4.547s-4.547 6.86-4.547 10.978c0 4.117 1.636 8.066 4.547 10.978s6.86 4.547 10.978 4.547c2.039 0 4.057-0.402 5.941-1.182z"></path>
<path stroke-width="0.9505" stroke-miterlimit="4" stroke-linecap="round" stroke-linejoin="round" d="M39.684 30.343c1.884-0.78 3.595-1.924 5.037-3.365s2.585-3.153 3.365-5.037c0.78-1.884 1.182-3.902 1.182-5.941s-0.402-4.057-1.182-5.941c-0.78-1.883-1.924-3.595-3.365-5.037s-3.153-2.585-5.037-3.365c-1.883-0.78-3.902-1.182-5.941-1.182-4.117 0-8.066 1.636-10.978 4.547s-4.547 6.86-4.547 10.978c0 4.117 1.636 8.066 4.547 10.978s6.86 4.547 10.978 4.547c2.039 0 4.058-0.402 5.941-1.182z"></path>
</symbol>

<symbol id="icon-thre-heart" viewBox="0 0 29 32">
<path stroke-width="0.6882" stroke-miterlimit="4" stroke-linecap="round" stroke-linejoin="round" d="M10.064 23.648v3.592c0 1.171 0.465 2.294 1.293 3.122s1.951 1.293 3.122 1.293c1.171 0 2.294-0.465 3.122-1.293s1.293-1.951 1.293-3.122v-3.592l3.11 1.796c1.014 0.576 2.214 0.728 3.34 0.423s2.084-1.044 2.667-2.054c0.583-1.010 0.743-2.209 0.445-3.337s-1.030-2.091-2.036-2.681l-19.468-11.24c-1.014-0.576-2.214-0.728-3.339-0.423s-2.084 1.044-2.667 2.054c-0.583 1.010-0.743 2.209-0.445 3.337s1.030 2.091 2.036 2.681l3.11 1.796-3.11 1.796c-1.006 0.59-1.738 1.553-2.036 2.681s-0.138 2.327 0.445 3.337 1.542 1.748 2.667 2.054c1.125 0.305 2.326 0.154 3.339-0.423l16.358-9.444M23.312 16l3.11-1.796c1.006-0.59 1.738-1.553 2.036-2.681s0.138-2.327-0.445-3.337c-0.583-1.010-1.542-1.748-2.667-2.054s-2.326-0.154-3.34 0.423l-3.11 1.796v-3.592c0-1.171-0.465-2.294-1.293-3.122s-1.951-1.293-3.122-1.293-2.294 0.465-3.122 1.293c-0.828 0.828-1.293 1.951-1.293 3.122v3.592"></path>
</symbol>

<symbol id="icon-arcticons" viewBox="0 0 32 32">
<path stroke-width="0.6667" stroke-miterlimit="4" stroke-linecap="round" stroke-linejoin="round" d="M30.333 16.133c-0.067 7.092-5.31 13.069-12.333 14.058v-28.381c2.762 0.389 5.351 1.576 7.449 3.415s3.613 4.25 4.361 6.937l-27.618 7.679c0.748 2.687 2.263 5.098 4.361 6.936s4.686 3.025 7.448 3.414v-28.38c-7.023 0.989-12.266 6.967-12.333 14.058"></path>
</symbol>

<symbol id="icon-heart-people" viewBox="0 0 24 32">
<path stroke-width="0.7018" stroke-miterlimit="4" stroke-linecap="round" stroke-linejoin="round" d="M23.436 20.101c0.246-0.573 0.373-1.19 0.373-1.813s-0.127-1.24-0.373-1.813c-0.246-0.573-0.606-1.090-1.058-1.519-0.925-0.878-2.153-1.368-3.429-1.368s-2.503 0.49-3.429 1.368l-3.441 3.441-3.441-3.441c-0.925-0.878-2.153-1.368-3.429-1.368s-2.503 0.49-3.429 1.368c-0.452 0.429-0.812 0.946-1.058 1.519s-0.373 1.19-0.373 1.813 0.127 1.24 0.373 1.813c0.246 0.573 0.606 1.090 1.058 1.519l10.298 10.009 10.298-10.009c0.452-0.429 0.812-0.946 1.058-1.519zM15.483 8.566c0.902-0.902 1.409-2.126 1.409-3.403s-0.507-2.5-1.409-3.403c-0.902-0.902-2.126-1.409-3.403-1.409s-2.5 0.507-3.403 1.409-1.409 2.126-1.409 3.403c0 1.276 0.507 2.5 1.409 3.403s2.126 1.409 3.403 1.409c1.276 0 2.5-0.507 3.403-1.409z"></path>
</symbol>

<symbol id="icon-flowers" viewBox="0 0 32 32">
<path stroke-width="0.7805" stroke-miterlimit="4" stroke-linecap="round" stroke-linejoin="round" d="M30.311 9.756c-2.409-5.513-7.911-9.366-14.311-9.366s-11.902 3.853-14.311 9.366"></path>
<path stroke-width="0.7805" stroke-miterlimit="4" stroke-linecap="round" stroke-linejoin="round" d="M12.532 13.296c-0.804 1.915-1.217 3.971-1.215 6.047 0 0.39 0.014 0.777 0.043 1.161 1.472 1.45 2.64 3.179 3.437 5.086s1.206 3.953 1.203 6.020c-0.003-2.067 0.406-4.113 1.203-6.020s1.965-3.636 3.437-5.086c0.029-0.383 0.043-0.77 0.043-1.161 0.003-2.077-0.41-4.133-1.215-6.047s-1.984-3.649-3.468-5.101c-1.485 1.452-2.664 3.186-3.468 5.101z"></path>
<path stroke-width="0.7805" stroke-miterlimit="4" stroke-linecap="round" stroke-linejoin="round" d="M16 31.61c0.003-2.067-0.406-4.113-1.203-6.020s-1.965-3.636-3.437-5.086c-2.919-2.89-6.862-4.509-10.97-4.503 0 8.621 6.989 15.61 15.61 15.61z"></path>
<path stroke-width="0.7805" stroke-miterlimit="4" stroke-linecap="round" stroke-linejoin="round" d="M16 31.61c-0.003-2.067 0.406-4.113 1.203-6.020s1.965-3.636 3.437-5.086c2.919-2.89 6.862-4.509 10.97-4.503 0 8.621-6.989 15.61-15.61 15.61z"></path>
</symbol>

<symbol id="icon-arrow-bottom-left" viewBox="0 0 32 32">
<path stroke-width="1.8856" stroke-miterlimit="4" stroke-linecap="round" stroke-linejoin="round" d="M23.555 24.445l-15.555-0.444-0.444-15.555M24 8l-16 16"></path>
</symbol>

<symbol id="icon-accordion-plus" viewBox="0 0 32 32">
<path stroke-width="4" stroke-miterlimit="4" stroke-linecap="round" stroke-linejoin="round" d="M2 16h28M16 16v-14M16 16v14"></path>
</symbol>

<symbol id="icon-hugeicons_file-upload1" viewBox="0 0 32 32">
<path stroke-width="1.6" stroke-miterlimit="4" stroke-linecap="round" stroke-linejoin="round" d="M5.333 16v3.392c0 4.327 0 6.491 1.181 7.956 0.239 0.296 0.508 0.565 0.804 0.804 1.468 1.181 3.629 1.181 7.956 1.181 0.94 0 1.411 0 1.841-0.152 0.089-0.032 0.176-0.068 0.263-0.109 0.413-0.197 0.745-0.529 1.411-1.195l6.315-6.315c0.772-0.771 1.156-1.156 1.36-1.647 0.203-0.491 0.203-1.035 0.203-2.125v-4.457c0-5.028 0-7.543-1.563-9.104s-4.076-1.563-9.104-1.563M17.333 28.667v-0.667c0-3.771 0-5.657 1.172-6.828 1.171-1.172 3.057-1.172 6.828-1.172h0.667"></path>
<path stroke-width="1.6" stroke-miterlimit="4" stroke-linecap="round" stroke-linejoin="round" d="M13.333 6.667c-0.787-0.809-2.88-4-4-4s-3.213 3.191-4 4M9.333 4.001v9.333"></path>
</symbol>

<symbol id="icon-phone" viewBox="0 0 32 32">
<path stroke-width="2" stroke-miterlimit="4" stroke-linecap="round" stroke-linejoin="round" d="M21 1c1.657 0 3 1.343 3 3v24c0 1.657-1.343 3-3 3h-10c-1.657 0-3-1.343-3-3v-24c0-1.657 1.343-3 3-3h10z"></path>
<path stroke-width="1.3333" stroke-miterlimit="4" stroke-linecap="round" stroke-linejoin="round" d="M11 1h1.5c0.133 0 0.26 0.053 0.354 0.146s0.146 0.221 0.146 0.354c0 0.265 0.105 0.52 0.293 0.707s0.442 0.293 0.707 0.293h4c0.265 0 0.52-0.105 0.707-0.293s0.293-0.442 0.293-0.707c0-0.133 0.053-0.26 0.146-0.354s0.221-0.146 0.354-0.146h1.5"></path>
</symbol>

<!-- <symbol id="icon-phone" viewBox="0 0 32 32">
  <path
    d="M21 1c1.657 0 3 1.343 3 3v24c0 1.657-1.343 3-3 3h-10c-1.657 0-3-1.343-3-3v-24c0-1.657 1.343-3 3-3h10z"
    stroke="currentColor"
    stroke-width="2"
    fill="none"
  />
  <path
    d="M11 1h1.5..."
    stroke="currentColor"
    stroke-width="1.3333"
    fill="none"
  />
</symbol> -->


<symbol id="icon-email" viewBox="0 0 32 32">
<path stroke-width="2" stroke-miterlimit="4" stroke-linecap="round" stroke-linejoin="round" d="M3.984 27.436h6.057v-20.377l-1.856-1.189c-2.686-1.717-6.219 0.206-6.219 3.387v16.169c0 1.111 0.905 2.011 2.021 2.011"></path>
<path stroke-width="2" stroke-miterlimit="4" stroke-linecap="round" stroke-linejoin="round" d="M1.966 11.945l14.133 9.054 14.135-9.054v-2.69c0-3.182-3.536-5.104-6.224-3.383l-1.851 1.189-6.059 3.879-7.913-5.070c-2.686-1.717-6.219 0.206-6.219 3.387v2.688z"></path>
<path stroke-width="2" stroke-miterlimit="4" stroke-linecap="round" stroke-linejoin="round" d="M28.212 27.436c0.265 0.001 0.527-0.050 0.773-0.151s0.468-0.248 0.656-0.435 0.337-0.409 0.438-0.654c0.102-0.245 0.154-0.507 0.154-0.772v-16.167c0-3.182-3.536-5.104-6.224-3.383l-1.851 1.189-0.002 20.373h6.057z"></path>
</symbol>

<!-- <symbol id="icon-email" viewBox="0 0 32 32">
  <path
    d="M3.984 27.436h6.057v-20.377l-1.856-1.189c-2.686-1.717-6.219 0.206-6.219 3.387v16.169c0 1.111 0.905 2.011 2.021 2.011"
    stroke="currentColor"
    stroke-width="2"
    stroke-linecap="round"
    stroke-linejoin="round"
    fill="none"
  />
  <path
    d="M1.966 11.945l14.133 9.054 14.135-9.054v-2.69c0-3.182-3.536-5.104-6.224-3.383l-1.851 1.189-6.059 3.879-7.913-5.070c-2.686-1.717-6.219 0.206-6.219 3.387v2.688z"
    stroke="currentColor"
    stroke-width="2"
    stroke-linecap="round"
    stroke-linejoin="round"
    fill="none"
  />
  <path
    d="M28.212 27.436c0.265 0.001 0.527-0.050 0.773-0.151s0.468-0.248 0.656-0.435 0.337-0.409 0.438-0.654c0.102-0.245 0.154-0.507 0.154-0.772v-16.167c0-3.182-3.536-5.104-6.224-3.383l-1.851 1.189-0.002 20.373h6.057z"
    stroke="currentColor"
    stroke-width="2"
    stroke-linecap="round"
    stroke-linejoin="round"
    fill="none"
  />
</symbol> -->


<symbol id="icon-location" viewBox="0 0 23 32">
<path stroke-width="2" stroke-miterlimit="4" stroke-linecap="round" stroke-linejoin="round" d="M1.619 11.595c0 5.876 6.476 15.189 8.854 18.405 0.099 0.136 0.228 0.246 0.378 0.322s0.315 0.116 0.483 0.116 0.333-0.039 0.483-0.116c0.15-0.076 0.279-0.187 0.378-0.322 2.378-3.215 8.854-12.524 8.854-18.405 0-5.107-4.351-9.254-9.714-9.254s-9.714 4.147-9.714 9.254z"></path>
<path stroke-width="2" stroke-miterlimit="4" stroke-linecap="round" stroke-linejoin="round" d="M14.571 11.708c0-1.724-1.45-3.122-3.238-3.122s-3.238 1.398-3.238 3.122c0 1.724 1.45 3.122 3.238 3.122s3.238-1.398 3.238-3.122z"></path>
</symbol>

<!-- <symbol id="icon-location" viewBox="0 0 23 32">
  <path
    d="M1.619 11.595c0 5.876 6.476 15.189 8.854 18.405 0.099 0.136 0.228 0.246 0.378 0.322s0.315 0.116 0.483 0.116 0.333-0.039 0.483-0.116c0.15-0.076 0.279-0.187 0.378-0.322 2.378-3.215 8.854-12.524 8.854-18.405 0-5.107-4.351-9.254-9.714-9.254s-9.714 4.147-9.714 9.254z"
    stroke="currentColor"
    stroke-width="2"
    stroke-linecap="round"
    stroke-linejoin="round"
    fill="none"
  />
  <path
    d="M14.571 11.708c0-1.724-1.45-3.122-3.238-3.122s-3.238 1.398-3.238 3.122c0 1.724 1.45 3.122 3.238 3.122s3.238-1.398 3.238-3.122z"
    stroke="currentColor"
    stroke-width="2"
    stroke-linecap="round"
    stroke-linejoin="round"
    fill="none"
  />
</symbol> -->


<symbol id="icon-facebook" viewBox="0 0 33 32">
<path d="M32.667 16.441c0-8.854-7.168-16.040-16-16.040s-16 7.186-16 16.040c0 7.763 5.504 14.227 12.8 15.719v-10.907h-3.2v-4.812h3.2v-4.010c0-3.096 2.512-5.614 5.6-5.614h4v4.812h-3.2c-0.88 0-1.6 0.722-1.6 1.604v3.208h4.8v4.812h-4.8v11.148c8.080-0.802 14.4-7.635 14.4-15.96z"></path>
</symbol>

<symbol id="icon-arrow-in-top" viewBox="0 0 32 32">
<path stroke-width="2.7369" stroke-miterlimit="4" stroke-linecap="round" stroke-linejoin="round" d="M1.374 15.224l14.597-13.786 14.597 13.786M15.971 30.632v-29.194"></path>
</symbol>

<symbol id="icon-edit" viewBox="0 0 32 32">
<path stroke-width="2.6667" stroke-miterlimit="4" stroke-linecap="round" stroke-linejoin="round" d="M4 28h24M20.067 4l6.6 6.6-11.247 11.247c-0.25 0.25-0.589 0.391-0.943 0.391h-6.048v-6.048c0-0.354 0.141-0.693 0.391-0.943l11.247-11.247zM16.296 7.771l6.6 6.6"></path>
</symbol>

<symbol id="icon-delete" viewBox="0 0 32 32">
<path d="M9.333 28c-0.733 0-1.361-0.261-1.883-0.783s-0.783-1.15-0.784-1.884v-17.333h-1.333v-2.667h6.667v-1.333h8v1.333h6.667v2.667h-1.333v17.333c0 0.733-0.261 1.361-0.783 1.884s-1.15 0.784-1.884 0.783h-13.333zM22.667 8h-13.333v17.333h13.333v-17.333zM12 22.667h2.667v-12h-2.667v12zM17.333 22.667h2.667v-12h-2.667v12z"></path>
</symbol>

</defs>
</svg>
