<svg aria-hidden="true" style="position: absolute; width: 0; height: 0; overflow: hidden;" version="1.1" xmlns="http://www.w3.org/2000/svg" xmlns:xlink="http://www.w3.org/1999/xlink">
<defs>

<symbol id="icon-burger-menu" viewBox="0 0 32 32">
<path stroke-width="1.2" stroke-miterlimit="4" stroke-linecap="round" stroke-linejoin="round" d="M31.2 9.6h-22.8M31.2 16h-30.4M31.2 22.4h-15.2"></path>
</symbol>

<symbol id="icon-burger-menu-close" viewBox="0 0 32 32">
<path d="M8.533 24.41l-0.944-0.944 7.467-7.467-7.467-7.467 0.944-0.944 7.467 7.467 7.467-7.467 0.944 0.944-7.467 7.467 7.467 7.467-0.944 0.944-7.467-7.467-7.467 7.467z"></path>
</symbol>

<symbol id="icon-iconoir" viewBox="0 0 32 32">
<path stroke-width="2" stroke-miterlimit="4" stroke-linecap="round" stroke-linejoin="round" d="M4 17.333c4.8-10.667 19.2-10.667 24 0"></path>
<path stroke-width="2" stroke-miterlimit="4" stroke-linecap="round" stroke-linejoin="round" d="M16 22.667c-0.525 0-1.045-0.103-1.531-0.305s-0.926-0.496-1.298-0.867c-0.371-0.371-0.666-0.812-0.867-1.298s-0.304-1.005-0.304-1.531 0.103-1.045 0.304-1.531c0.201-0.485 0.496-0.926 0.867-1.298s0.812-0.666 1.298-0.867c0.485-0.201 1.005-0.305 1.531-0.305 1.061 0 2.078 0.421 2.828 1.172s1.172 1.768 1.172 2.828c0 1.061-0.421 2.078-1.172 2.828s-1.768 1.172-2.828 1.172z"></path>
</symbol>

<symbol id="icon-iconoir-close" viewBox="0 0 32 32">
<path stroke-width="2" stroke-miterlimit="4" stroke-linecap="round" stroke-linejoin="round" d="M4 17.333c4.8-10.667 19.2-10.667 24 0"></path>
</symbol>

<symbol id="icon-arrow-outlined" viewBox="0 0 16 32">
<path d="M12.756 8.767l-1.415-1.413-7.705 7.703c-0.124 0.123-0.223 0.27-0.29 0.432s-0.102 0.335-0.102 0.51c0 0.175 0.035 0.348 0.102 0.51s0.166 0.308 0.29 0.432l7.705 7.707 1.413-1.413-7.232-7.233 7.233-7.233z"></path>
</symbol>


</defs>
</svg>
